<?xml version="1.0" encoding="UTF-8"?>
<svg width="33px" height="64px" viewBox="0 0 33 64" version="1.1" xmlns="http://www.w3.org/2000/svg" xmlns:xlink="http://www.w3.org/1999/xlink">
    <g id="opera-com-privacy-secure-O64-(dev)" stroke="none" stroke-width="1" fill="none" fill-rule="evenodd">
        <g id="opera-com-O64--final-a-(hovers-view)" transform="translate(-891.000000, -4601.000000)">
            <g id="opera-com-icon--settings-control" transform="translate(892.000000, 4617.000000)">
                <polygon id="Stroke-1-Copy" stroke="#0299FF" stroke-width="2" fill="#0299FF" stroke-linecap="round" stroke-linejoin="round" points="25.2873563 14.7126437 30.3448276 10.5747126 27.5862069 5.05747126 21.6091954 6.43678161 19.3103448 5.05747126 18.3908046 -3.85469434e-13 15.3121839 -3.85469434e-13 11.954023 -3.85469434e-13 11.0344828 5.05747126 8.73563218 6.43678161 2.75862069 5.05747126 -2.00905959e-12 10.5747126 5.05747126 14.7126437 5.05747126 16.5517241 -2.00905959e-12 20.6896552 2.75862069 26.2068966 8.73563218 24.8275862 11.0344828 26.2068966 11.954023 31.2643678 15.3121839 31.2643678 18.3908046 31.2643678 19.3103448 26.2068966 21.6091954 24.8275862 27.5862069 26.2068966 30.3448276 20.6896552 25.2873563 16.5517241"></polygon>
                <path d="M17.2831264,20.7282759 C20.0978391,19.5622989 21.433931,16.3365517 20.2688736,13.5209195 C19.1028966,10.7071264 15.8762299,9.37011494 13.0615172,10.536092 C10.2477241,11.702069 8.91071264,14.9278161 10.0766897,17.7434483 C11.2426667,20.5572414 14.4684138,21.8942529 17.2831264,20.7282759 Z" id="Stroke-3-Copy" fill="#FFFFFF"></path>
            </g>
        </g>
    </g>
</svg>
