<?xml version="1.0" encoding="UTF-8"?>
<svg width="40px" height="64px" viewBox="0 0 40 64" version="1.1" xmlns="http://www.w3.org/2000/svg" xmlns:xlink="http://www.w3.org/1999/xlink">
    <g id="opera-com-privacy-secure-O64-(dev)" stroke="none" stroke-width="1" fill="none" fill-rule="evenodd">
        <g id="opera-com-O64--final-a-(hovers-view)" transform="translate(-543.000000, -4602.000000)">
            <g id="opera-com-icon--private-browsing" transform="translate(543.000000, 4618.000000)" fill="#0299FF">
                <path d="M27.6035556,1.23777778 L31.1111111,9.94 C30.2257778,10.7142222 26.0942222,12.0000046 19.5551111,12.0000046 C13.0173333,12.0000046 8.88533333,10.7146667 8,9.93955556 L11.5066667,1.23866667 C11.8875556,0.295555556 12.8902222,-0.204444444 13.84,0.0791111111 L19.5551111,1.76622222 L25.2711111,0.0782222222 C26.2222222,-0.199555556 27.2235556,0.296444444 27.6035556,1.23777778 Z M32.0968889,11.5555556 C36.3786667,12.2017778 39.1111111,13.1706667 39.1111111,14.2555556 C39.1111111,16.2 30.356,17.7777778 19.5555556,17.7777778 C8.75511111,17.7777778 0,16.2 0,14.2555556 C0,13.1706667 2.732,12.2017778 7.01555556,11.5555556 C10.1004444,13.6817778 18.4173333,13.7573333 19.5555556,13.7573333 C20.6933333,13.7573333 29.0106667,13.6817778 32.0964444,11.5555556 L32.0968889,11.5555556 Z M34.2697778,27.9844444 L34.2697778,22.0444444 L24.4986667,22.0444444 L24.4986667,26.9111111 C24.4986667,28.5946667 24.8368889,29.5111111 26.4528889,29.5111111 L32.804,29.5111111 C33.612,29.5111111 34.2697778,28.8262222 34.2697778,27.9844444 L34.2697778,27.9844444 Z M14.7275556,26.9111111 L14.7275556,22.0444444 L4.95644444,22.0444444 L4.95644444,27.9844444 C4.95644444,28.8262222 5.61422222,29.5111111 6.42222222,29.5111111 L12.2844444,29.5111111 C13.9008889,29.5111111 14.7271111,28.5946667 14.7271111,26.9111111 L14.7275556,26.9111111 Z M1.42133333,19.5555556 L37.6897778,19.5555556 C38.2288889,19.5555556 38.6666667,20.2537778 38.6666667,20.8168889 C38.6666667,21.3786667 38.2288889,22.0444444 37.6897778,22.0444444 L36.7124444,22.0444444 L36.7124444,27.9844444 C36.7124444,29.9488889 34.6902222,32 32.804,32 L26.4528889,32 C23.7595556,32 22.056,29.7173333 22.056,26.9111111 L22.056,24.5333333 L17.1702222,24.5333333 L17.1702222,26.9111111 C17.1702222,29.7173333 14.9791111,32 12.2848889,32 L6.42222222,32 C4.53644444,32 2.51377778,29.9488889 2.51377778,27.9844444 L2.51377778,22.0444444 L1.42133333,22.0444444 C0.882222222,22.0444444 0.444444444,21.3786667 0.444444444,20.8168889 C0.444444444,20.2533333 0.882222222,19.5555556 1.42133333,19.5555556 Z" id="Shape"></path>
            </g>
        </g>
    </g>
</svg>
