<?xml version="1.0" encoding="UTF-8"?>
<svg width="47px" height="64px" viewBox="0 0 47 64" version="1.1" xmlns="http://www.w3.org/2000/svg" xmlns:xlink="http://www.w3.org/1999/xlink">
    <g id="opera-com-privacy-secure-O64-(dev)" stroke="none" stroke-width="1" fill="none" fill-rule="evenodd">
        <g id="opera-com-O64--final-a-(hovers-view)" transform="translate(-543.000000, -4354.000000)">
            <g id="opera-com-icon--free-vpn" transform="translate(543.000000, 4371.000000)">
                <rect id="Rectangle" fill="#0299FF" x="0" y="0" width="46.3636364" height="28.3333333" rx="5.15151515"></rect>
                <path d="M10.1118608,10.4866536 L12.6171875,17.9045336 L15.1300604,10.4338305 C15.2608612,10.041428 15.3589604,9.76851107 15.4243608,9.61507161 C15.4897612,9.46163216 15.5979218,9.32328719 15.7488459,9.20003255 C15.8997699,9.07677791 16.1060297,9.01515152 16.3676314,9.01515152 C16.5588019,9.01515152 16.736135,9.06294341 16.899636,9.15852865 C17.0631371,9.25411388 17.1914206,9.38113971 17.2844904,9.53960997 C17.3775602,9.69808022 17.4240945,9.85780578 17.4240945,10.0187914 C17.4240945,10.1294691 17.4090023,10.2489488 17.3788175,10.3772343 C17.3486327,10.5055197 17.3109022,10.6312879 17.265625,10.7545425 C17.2203478,10.8777971 17.1750712,11.004823 17.129794,11.1356238 L14.4509055,18.3648497 C14.3553203,18.6415438 14.2597365,18.9043992 14.1641513,19.1534239 C14.068566,19.4024486 13.9578901,19.6212852 13.83212,19.8099402 C13.70635,19.9985953 13.5390783,20.1532901 13.3303001,20.2740294 C13.1215218,20.3947686 12.8662124,20.4551373 12.5643643,20.4551373 C12.2625162,20.4551373 12.0072069,20.3960263 11.7984286,20.2778024 C11.5896504,20.1595786 11.421121,20.0036261 11.2928356,19.8099402 C11.1645501,19.6162544 11.0526165,19.3961601 10.9570312,19.1496508 C10.861446,18.9031415 10.7658622,18.6415438 10.670277,18.3648497 L8.03666548,11.1959931 C7.99138827,11.0651923 7.94485405,10.9369088 7.89706143,10.8111387 C7.84926882,10.6853687 7.80902301,10.5495391 7.7763228,10.4036458 C7.74362259,10.2577526 7.72727273,10.1344998 7.72727273,10.0338838 C7.72727273,9.77731287 7.83040261,9.54338411 8.03666548,9.33209044 C8.24292835,9.12079677 8.50201075,9.01515152 8.81392045,9.01515152 C9.19626138,9.01515152 9.46666292,9.1321159 9.62513317,9.36604818 C9.78360342,9.59998045 9.94584434,9.97351188 10.1118608,10.4866536 Z M22.8855054,15.9576231 L20.8329486,15.9576231 L20.8329486,19.0892815 C20.8329486,19.5370228 20.7273034,19.8765969 20.5160097,20.1080137 C20.304716,20.3394306 20.0380875,20.4551373 19.7161162,20.4551373 C19.3790525,20.4551373 19.1073933,20.3406883 18.9011304,20.1117868 C18.6948676,19.8828853 18.5917377,19.5470844 18.5917377,19.1043738 L18.5917377,10.5772076 C18.5917377,10.0841891 18.704929,9.73203823 18.9313151,9.52074455 C19.1577012,9.30945088 19.5173981,9.20380563 20.0104167,9.20380563 L22.8855054,9.20380563 C23.7357109,9.20380563 24.3897053,9.26920508 24.8475083,9.40000592 C25.3002804,9.52577596 25.6914194,9.7345511 26.0209369,10.0263376 C26.3504544,10.3181241 26.600733,10.6753057 26.7717803,11.097893 C26.9428276,11.5204803 27.0283499,11.995884 27.0283499,12.5241181 C27.0283499,13.6510177 26.6812298,14.5049835 25.9869792,15.0860411 C25.2927285,15.6670987 24.2589143,15.9576231 22.8855054,15.9576231 Z M22.3421816,10.8866004 L20.8329486,10.8866004 L20.8329486,14.2672822 L22.3421816,14.2672822 C22.8704158,14.2672822 23.311862,14.2119442 23.6665335,14.1012666 C24.021205,13.9905889 24.2916066,13.8094828 24.4777462,13.5579427 C24.6638859,13.3064026 24.7569543,12.9768901 24.7569543,12.5693951 C24.7569543,12.0814074 24.6135786,11.68398 24.3268229,11.3771011 C24.0048516,11.050099 23.3433111,10.8866004 22.3421816,10.8866004 Z M31.305013,10.3583688 L35.6138731,16.8782552 L35.6138731,10.2979995 C35.6138731,9.87038138 35.7056839,9.54967259 35.8893081,9.33586352 C36.0729324,9.12205445 36.3206956,9.01515152 36.6326054,9.01515152 C36.9545767,9.01515152 37.2086283,9.12205445 37.394768,9.33586352 C37.5809077,9.54967259 37.6739761,9.87038138 37.6739761,10.2979995 L37.6739761,18.9987275 C37.6739761,19.9696722 37.271518,20.4551373 36.4665897,20.4551373 C36.2653577,20.4551373 36.0842515,20.4262106 35.9232659,20.3683564 C35.7622802,20.3105022 35.6113584,20.2186914 35.470496,20.0929214 C35.3296335,19.9671514 35.1988346,19.8200026 35.0780954,19.6514708 C34.9573562,19.4829389 34.8366187,19.3106365 34.7158795,19.1345585 L30.5126657,12.6901338 L30.5126657,19.1722893 C30.5126657,19.5948766 30.4145666,19.9143278 30.2183653,20.1306522 C30.022164,20.3469767 29.7706277,20.4551373 29.4637488,20.4551373 C29.1468083,20.4551373 28.8927566,20.345719 28.7015862,20.1268791 C28.5104157,19.9080393 28.4148319,19.5898458 28.4148319,19.1722893 L28.4148319,10.6375769 C28.4148319,10.2753592 28.4550777,9.99112319 28.5355705,9.78486032 C28.6311558,9.55847425 28.7896237,9.37359506 29.0109789,9.23021721 C29.2323342,9.08683936 29.4712937,9.01515152 29.7278646,9.01515152 C29.9290967,9.01515152 30.101399,9.04785124 30.2447769,9.11325166 C30.3881547,9.17865208 30.5139229,9.26668979 30.6220851,9.37736742 C30.7302473,9.48804506 30.8409233,9.63142076 30.9541164,9.80749882 C31.0673094,9.98357687 31.1842738,10.1671984 31.305013,10.3583688 Z" id="VPN" fill="#FFFFFF" fill-rule="nonzero"></path>
            </g>
        </g>
    </g>
</svg>
