<?xml version="1.0" encoding="UTF-8"?>
<svg width="35px" height="64px" viewBox="0 0 35 64" version="1.1" xmlns="http://www.w3.org/2000/svg" xmlns:xlink="http://www.w3.org/1999/xlink">
    <g id="opera-com-privacy-secure-O64-(dev)" stroke="none" stroke-width="1" fill="none" fill-rule="evenodd">
        <g id="opera-com-O64--final-a-(hovers-view)" transform="translate(-192.000000, -4353.000000)">
            <g id="opera-com-icon--ad-blocker-on" transform="translate(193.000000, 4365.000000)">
                <path d="M17.6564251,0.224197308 C16.8850903,0.0711308728 16.128762,0.0711308728 15.3574272,0.224197308 C12.2660855,0.836463048 3.8654394,2.55620947 1.67448846,3.62167191 C0.639039051,4.12288945 -0.000238413665,5.16434147 -0.000238413665,6.31384038 L-0.000238413665,23.4212655 C-0.000238413665,27.5270475 2.09467084,31.3477058 5.56117539,33.5506619 L14.8952266,39.4902399 C15.8796539,40.1175121 17.1341984,40.1175121 18.1186257,39.4902399 L27.4556782,33.5506619 C30.9191815,31.3477058 33.0140907,27.5270475 33.0140907,23.4212655 L33.0140907,6.31384038 C33.0140907,5.16434147 32.3748133,4.12288945 31.3423651,3.62167191 C29.1484129,2.55620947 20.7477668,0.836463048 17.6564251,0.224197308 Z" id="Stroke-1" stroke="#0199FF" stroke-width="1.42919174" fill="#0199FF" fill-rule="nonzero"></path>
                <path d="M8.94824906,19.5084672 L15.1963009,27.0570533" id="Stroke-3" stroke="#FFFFFF" stroke-width="2.85838347" stroke-linecap="round"></path>
                <path d="M24.010783,12.0052106 L15.3770863,27.1453155" id="Stroke-5" stroke="#FFFFFF" stroke-width="2.85838347" stroke-linecap="round"></path>
            </g>
        </g>
    </g>
</svg>
