<?xml version="1.0" encoding="UTF-8"?>
<svg width="60px" height="64px" viewBox="0 0 60 64" version="1.1" xmlns="http://www.w3.org/2000/svg" xmlns:xlink="http://www.w3.org/1999/xlink">
    <g id="opera-com-privacy-secure-O64-(dev)" stroke="none" stroke-width="1" fill="none" fill-rule="evenodd">
        <g id="opera-com-O64--final-a-(hovers-view)" transform="translate(-193.000000, -4601.000000)">
            <g id="opera-com-icon--cryptomining-protection" transform="translate(193.000000, 4613.000000)">
                <g id="Group-23-Copy-5" transform="translate(12.000000, 8.000000)">
                    <g id="Group-22">
                        <circle id="Oval" fill="#0299FF" cx="15.6038095" cy="15.6038095" r="15.6038095"></circle>
                        <g id="Group-24-Copy-2" transform="translate(24.000000, 4.000000)" stroke="#FA1E4E" stroke-width="3.51085714">
                            <circle id="Oval-Copy-5" fill="#FFFFFF" cx="11.7028571" cy="11.7028571" r="9.94742857"></circle>
                            <path d="M4.87619048,2.92571429 L18.5295238,19.5047619" id="Path-9-Copy"></path>
                        </g>
                        <path d="M21.8453333,12.8174266 C21.8453333,10.4616259 19.8328962,8.54490917 17.3592117,8.54490917 L17.1641905,8.54490917 L17.1641905,6.68735413 C17.1641905,5.86663717 16.4655582,5.20126984 15.6038095,5.20126984 C14.7420609,5.20126984 14.0434286,5.86663717 14.0434286,6.68735413 L14.0434286,8.54490917 L10.9226667,8.54490917 C10.060918,8.54490917 9.36228571,9.2102765 9.36228571,10.0309935 L9.36228571,21.1766256 C9.36228571,21.9973426 10.060918,22.6627099 10.9226667,22.6627099 L14.0434286,22.6627099 L14.0434286,24.5202649 C14.0434286,25.3409819 14.7420609,26.0063492 15.6038095,26.0063492 C16.4655582,26.0063492 17.1641905,25.3409819 17.1641905,24.5202649 L17.1641905,22.6627099 L17.3592117,22.6627099 C19.8327905,22.6627099 21.8453333,20.7460938 21.8453333,18.3901924 C21.8453333,17.3261883 21.4338449,16.3524358 20.7558134,15.6037592 C21.4339506,14.8551832 21.8453333,13.8814308 21.8453333,12.8174266 Z M17.3592117,19.6905413 L12.4830476,19.6905413 L12.4830476,17.0899441 L17.3592117,17.0899441 C18.11204,17.0899441 18.7245714,17.6733102 18.7245714,18.390293 C18.7245714,19.1072759 18.11204,19.6905413 17.3592117,19.6905413 Z M17.3592117,14.1177755 L12.4830476,14.1177755 L12.4830476,11.5171784 L17.3592117,11.5171784 C18.11204,11.5171784 18.7245714,12.1005444 18.7245714,12.8175273 C18.7245714,13.5344095 18.11204,14.1177755 17.3592117,14.1177755 Z" id="Shape-Copy-3" fill="#FFFFFF" fill-rule="nonzero"></path>
                    </g>
                </g>
                <g id="Group-8-Copy-7" fill="#0299FF" fill-rule="nonzero">
                    <path d="M11.4135741,6.42730487 L2.38792692,15.6061826 C2.28954049,15.7046705 2.16050856,15.7538462 2.03154487,15.7538462 C1.90258119,15.7538462 1.77358338,15.7046022 1.67516283,15.6061826 L0.147630827,14.0786646 C-0.0492102756,13.8818253 -0.0492102756,13.5626781 0.147630827,13.3658388 L9.17325438,4.18698517 L8.90003251,3.91376329 L7.74108702,2.75481781 C6.91888836,1.93261914 5.88636383,1.35592107 4.75513615,1.08700918 L4.3372013,0.987670173 C4.14297432,0.941483458 4.00666859,0.766823686 4.00903342,0.567191872 C4.01152427,0.367502253 4.1520209,0.196224111 4.34734619,0.154748557 C5.50562691,-0.0911566799 6.71798482,-0.0432646986 7.85325889,0.293221992 C8.95642192,0.620141848 9.97215391,1.21522212 10.7969827,2.01684197 L11.0346796,1.77914514 C11.2013911,1.61243364 11.4717192,1.61243364 11.6384018,1.77914514 L13.7946103,3.9353537 C13.9613218,4.1020652 13.9613218,4.37236442 13.7946103,4.53907592 L13.5569135,4.77677275 C14.3585045,5.60157267 14.9535847,6.61730466 15.2805046,7.72046769 C15.6169624,8.85574176 15.6648255,10.0680708 15.4189491,11.2263804 C15.3775025,11.4217057 15.2061665,11.5621734 15.0013033,11.5646301 C14.8038681,11.5646301 14.6318096,11.4290181 14.5860564,11.2364675 L14.4867174,10.8185326 C14.2178055,9.68733385 13.6410785,8.65483822 12.8189088,7.83263955 L11.6599633,6.67369407 L11.4135741,6.42730487 Z" id="Combined-Shape"></path>
                </g>
            </g>
        </g>
    </g>
</svg>
