<?xml version="1.0" encoding="UTF-8"?>
<svg width="36px" height="64px" viewBox="0 0 36 64" version="1.1" xmlns="http://www.w3.org/2000/svg" xmlns:xlink="http://www.w3.org/1999/xlink">
    <g id="opera-com-privacy-secure-O64-(dev)" stroke="none" stroke-width="1" fill="none" fill-rule="evenodd">
        <g id="opera-com-O64--final-a-(hovers-view)" transform="translate(-889.000000, -4353.000000)">
            <g id="opera-com-icon--tracker-blocker-on" transform="translate(891.000000, 4365.000000)" fill-rule="nonzero">
                <path d="M17.7608905,0.517699443 C17.0101246,0.366098057 16.2366286,0.366098057 15.4858627,0.517699443 C12.4295362,1.12326531 4.12022263,2.82597403 1.95205937,3.87799629 C0.933023851,4.37305147 0.289113467,5.40959014 0.296777136,6.54248609 L0.296777136,23.4627087 C0.296777136,27.5235622 2.36764378,31.2994434 5.79680891,33.4794805 L15.0299072,39.3546568 C16.0035622,39.9744712 17.2431911,39.9744712 18.216846,39.3546568 L27.4523191,33.4794805 C30.8768587,31.3000462 32.950425,27.5219457 32.9499073,23.4627087 L32.9499073,6.54248609 C32.9499073,5.4025974 32.3182189,4.37432282 31.2970686,3.87799629 C29.1265306,2.82597403 20.8172171,1.12326531 17.7608905,0.517699443 Z" id="Path" stroke="#0199FF" stroke-width="2.37476809" fill="#0199FF"></path>
                <g id="Group" transform="translate(5.640074, 13.358071)" fill="#FFFFFF">
                    <path d="M5.74456401,10.4489796 C7.84623377,9.8457885 9.63205937,9.64630798 8.81751391,6.80846011 C8.00534323,3.97298701 6.60423006,-0.914285714 2.79985158,0.175732839 C-1.0045269,1.26812616 0.396586271,6.15302412 1.20875696,8.99087199 C2.02330241,11.8263451 3.64289425,11.0521707 5.74456401,10.4489796 L5.74456401,10.4489796 Z M5.75168831,11.5294991 C7.72274583,10.966679 9.23309833,10.209128 9.67005566,11.7242301 C10.1022635,13.2417069 10.9500557,16.1911688 7.38315399,17.2146939 C3.81625232,18.2358442 2.96846011,15.2863822 2.53387755,13.7712801 C2.09929499,12.2561781 3.78300557,12.0946939 5.75168831,11.5318738 L5.75168831,11.5294991 Z" id="Shape"></path>
                </g>
                <g id="Group" transform="translate(17.513915, 7.124304)" fill="#FFFFFF">
                    <path d="M4.3458256,10.7458256 C2.24415584,10.1426345 0.458330241,9.94315399 1.27050093,7.10530612 C2.08504638,4.26983302 3.48615955,-0.617439703 7.29053803,0.47257885 C11.0949165,1.56497217 9.69380334,6.44987013 8.88163265,9.287718 C8.0670872,12.1231911 6.44512059,11.3490167 4.3458256,10.7458256 L4.3458256,10.7458256 Z M4.33632653,11.8263451 C2.36526902,11.263525 0.854916512,10.505974 0.420333952,12.0210761 C-0.0142486085,13.5385529 -0.859666048,16.4880148 2.70723562,17.5115399 C6.27413729,18.5326902 7.11955473,15.5832282 7.55413729,14.0681262 C7.98871985,12.5530241 6.30738404,12.3915399 4.33632653,11.8287199 L4.33632653,11.8263451 Z" id="Shape"></path>
                </g>
            </g>
        </g>
    </g>
</svg>
